#!OML:ASF Y:\EmotionMaleHayes\Project 1\Capture day 1\Session 1\Male1.ASF
:FULLY-SPECIFIED
:DEGREES
186
root -28.7381 17.1288 1.01825 10.388 87.2008 9.03956
lowerback 4.245 1.89571 -3.76946
upperback 0.850018 2.36572 -0.395906
thorax -1.63969 1.20463 1.56978
lowerneck -22.2646 2.15778 5.45497
upperneck 26.557 1.43205 -0.231171
head 12.5872 1.27463 -0.735463
rclavicle -9.98893e-015 7.95139e-015
rhumerus -36.2554 5.93053 -90.2783
rradius 33.6588
rwrist 0.791982
rhand -13.3066 -29.4019
rfingers 7.12502
rthumb 12.7976 -58.9896
lclavicle -9.98893e-015 7.95139e-015
lhumerus -30.4612 -12.0101 92.2294
lradius 24.7609
lwrist -8.4026
lhand -21.7045 -26.9822
lfingers 7.12502
lthumb 4.69413 2.94583
rfemur 8.33173 -5.41443 14.0998
rtibia 1.93796
rfoot -16.2089 -5.24949
rtoes 1.21277
lfemur 10.0687 -0.243085 -15.5965
ltibia -2.29042
lfoot -9.69482 6.15788
ltoes -17.3621
187
root -28.7376 17.1299 1.0174 10.1944 87.2265 8.84114
lowerback 4.29505 1.87512 -3.78221
upperback 0.801435 2.33403 -0.370767
thorax -1.71749 1.19053 1.60193
lowerneck -22.1518 2.17511 5.40592
upperneck 26.4785 1.47026 -0.189965
head 12.5335 1.29069 -0.705907
rclavicle 1.17283e-014 -8.54774e-015
rhumerus -36.3225 5.94958 -90.2656
rradius 33.6624
rwrist 0.742917
rhand -13.2379 -29.3614
rfingers 7.12502
rthumb 12.8639 -58.945
lclavicle 1.17283e-014 -8.54774e-015
lhumerus -30.6428 -12.1312 92.3788
lradius 24.8236
lwrist -8.75361
lhand -22.339 -26.5803
lfingers 7.12502
lthumb 4.08138 3.36034
rfemur 8.33925 -5.44736 14.1044
rtibia 1.94023
rfoot -16.1204 -5.16847
rtoes 1.52633
lfemur 10.1968 -0.789724 -15.7577
ltibia -2.55629
lfoot -9.76128 6.65598
ltoes -16.7233
188
root -28.7359 17.1288 1.01557 11.027 87.2359 9.62521
lowerback 4.28009 1.84813 -3.83652
upperback 0.739926 2.2943 -0.356595
thorax -1.77291 1.17242 1.64851
lowerneck -22.1154 2.16428 5.43616
upperneck 26.6004 1.49616 -0.337297
head 12.5767 1.28881 -0.762763
rclavicle -1.36913e-014 1.59028e-015
rhumerus -36.4087 6.00554 -90.2291
rradius 33.6666
rwrist 0.670558
rhand -13.0638 -29.1419
rfingers 7.12502
rthumb 13.0317 -58.7148
lclavicle -1.36913e-014 1.59028e-015
lhumerus -30.7156 -11.7387 92.2979
lradius 24.8124
lwrist -8.971
lhand -22.2048 -26.7711
lfingers 7.12502
lthumb 4.21101 3.167
rfemur 8.29785 -5.51738 14.0338
rtibia 1.95512
rfoot -16.0353 -5.07317
rtoes 1.81525
lfemur 10.3311 -1.55338 -16.07
ltibia -2.89643
lfoot -9.82919 7.45279
ltoes -16.5724
189
root -28.7355 17.1258 1.01582 9.35298 87.2622 7.89751
lowerback 4.23318 1.8329 -3.75399
upperback 0.712442 2.27895 -0.33887
thorax -1.77162 1.16439 1.62259
lowerneck -22.0039 2.18085 5.37474
upperneck 26.4084 1.49923 -0.183771
head 12.4762 1.30025 -0.694632
rclavicle 2.11209e-015 -3.37934e-015
rhumerus -36.4531 6.08847 -90.2743
rradius 33.7479
rwrist 0.695237
rhand -13.1499 -29.0058
rfingers 7.12502
rthumb 12.9487 -58.584
lclavicle 2.11209e-015 -3.37934e-015
lhumerus -30.7539 -11.727 92.2721
lradius 24.8282
lwrist -8.85536
lhand -22.2174 -26.9143
lfingers 7.12502
lthumb 4.19881 3.02407
rfemur 8.2425 -5.51772 14.1504
rtibia 1.9656
rfoot -16.0462 -5.11382
rtoes 1.70927
lfemur 10.2932 -1.70428 -16.0113
ltibia -2.92084
lfoot -9.8294 7.62169
ltoes -16.4859
190
root -28.735 17.1254 1.01579 7.24327 87.2669 5.79971
lowerback 4.25397 1.85092 -3.62471
upperback 0.704941 2.30741 -0.346258
thorax -1.78722 1.17806 1.54019
lowerneck -22.0335 2.17256 5.43423
upperneck 26.46 1.47118 -0.204045
head 12.5029 1.29272 -0.716656
rclavicle 7.45443e-017 -4.37326e-015
rhumerus -36.5207 6.12253 -90.38
rradius 33.8758
rwrist 0.804509
rhand -13.3823 -29.2284
rfingers 7.12502
rthumb 12.7246 -58.8207
lclavicle 7.45443e-017 -4.37326e-015
lhumerus -30.7568 -12.0074 92.2949
lradius 24.8458
lwrist -8.50672
lhand -22.6451 -26.8269
lfingers 7.12502
lthumb 3.78581 3.11924
rfemur 8.27207 -5.50969 14.2803
rtibia 1.95142
rfoot -16.0459 -5.1582
rtoes 1.32716
lfemur 10.2809 -1.66641 -15.8886
ltibia -2.85555
lfoot -9.8144 7.60029
ltoes -16.7041
191
root -28.7333 17.1271 1.01486 7.24738 87.2286 5.83924
lowerback 4.30464 1.89363 -3.5942
upperback 0.694027 2.36272 -0.383271
thorax -1.82702 1.20617 1.47971
lowerneck -22.1251 2.1405 5.43651
upperneck 26.5944 1.40888 -0.164103
head 12.573 1.27483 -0.711183
rclavicle -3.40419e-015 -7.95139e-015
rhumerus -36.5311 6.00169 -90.4026
rradius 33.836
rwrist 0.850124
rhand -13.3903 -29.3046
rfingers 7.12502
rthumb 12.7169 -58.8974
lclavicle -3.40419e-015 -7.95139e-015
lhumerus -30.7171 -12.1863 92.3011
lradius 24.8072
lwrist -8.30128
lhand -21.7785 -26.7224
lfingers 7.12502
lthumb 4.62261 3.20719
rfemur 8.31458 -5.51252 14.2693
rtibia 1.95173
rfoot -16.014 -5.17286
rtoes 0.799479
lfemur 10.2806 -1.35923 -15.806
ltibia -2.75369
lfoot -9.79855 7.29801
ltoes -17.2944
192
root -28.7323 17.1285 1.01399 8.92355 87.2483 7.5493
lowerback 4.34787 1.89487 -3.66716
upperback 0.694662 2.35899 -0.408119
thorax -1.85223 1.20524 1.49369
lowerneck -22.0911 2.12166 5.3473
upperneck 26.5409 1.3768 -0.0348916
head 12.5421 1.26821 -0.652666
rclavicle -3.90115e-015 -1.47101e-014
rhumerus -36.4919 5.92664 -90.375
rradius 33.7541
rwrist 0.854744
rhand -13.3378 -29.1143
rfingers 7.12502
rthumb 12.7675 -58.7039
lclavicle -3.90115e-015 -1.47101e-014
lhumerus -30.7125 -12.1301 92.2831
lradius 24.8197
lwrist -8.27921
lhand -22.1968 -26.8694
lfingers 7.12502
lthumb 4.21871 3.06856
rfemur 8.34194 -5.5257 14.1611
rtibia 1.98308
rfoot -16.0341 -5.1467
rtoes 0.961859
lfemur 10.2563 -1.04006 -15.7878
ltibia -2.64642
lfoot -9.78772 6.89752
ltoes -17.2943
193
root -28.7323 17.1301 1.01296 10.0558 87.3242 8.71208
lowerback 4.39255 1.84535 -3.73021
upperback 0.698535 2.28866 -0.384392
thorax -1.87287 1.17093 1.55635
lowerneck -22.0581 2.13307 5.20962
upperneck 26.4992 1.4145 0.065302
head 12.5176 1.28337 -0.585288
rclavicle 7.87684e-015 -5.56597e-015
rhumerus -36.4852 6.02735 -90.3485
rradius 33.689
rwrist 0.869302
rhand -13.1525 -29.1404
rfingers 7.12502
rthumb 12.9462 -58.7188
lclavicle 7.87684e-015 -5.56597e-015
lhumerus -30.844 -12.1504 92.4015
lradius 24.8644
lwrist -8.6827
lhand -22.1611 -26.6531
lfingers 7.12502
lthumb 4.25316 3.28415
rfemur 8.38937 -5.60124 14.0791
rtibia 1.98918
rfoot -16.0887 -5.12217
rtoes 1.23662
lfemur 10.2843 -1.11499 -15.8574
ltibia -2.66647
lfoot -9.80407 6.92002
ltoes -16.7864
194
root -28.7315 17.1307 1.01279 9.77128 87.3302 8.41966
lowerback 4.34535 1.81991 -3.75213
upperback 0.716396 2.25688 -0.349495
thorax -1.82855 1.15434 1.60841
lowerneck -22.1501 2.1604 5.27056
upperneck 26.6209 1.47154 -0.0824422
head 12.5879 1.29695 -0.641096
rclavicle -2.08724e-015 -2.78299e-015
rhumerus -36.4539 6.19771 -90.3677
rradius 33.6643
rwrist 0.811734
rhand -13.213 -29.1282
rfingers 7.12502
rthumb 12.8879 -58.7103
lclavicle -2.08724e-015 -2.78299e-015
lhumerus -30.8028 -11.957 92.3525
lradius 24.8366
lwrist -8.72301
lhand -21.9694 -26.628
lfingers 7.12502
lthumb 4.43836 3.30554
rfemur 8.41014 -5.58389 14.1059
rtibia 1.94316
rfoot -16.0963 -5.21538
rtoes 0.412609
lfemur 10.2387 -0.947007 -15.7834
ltibia -2.5932
lfoot -9.81132 6.85145
ltoes -16.9937
195
root -28.7305 17.1315 1.01304 12.12 87.2788 10.7471
lowerback 4.18689 1.8281 -3.87916
upperback 0.794314 2.27166 -0.386732
thorax -1.66386 1.15911 1.64698
lowerneck -22.2284 2.18102 5.42019
upperneck 26.6321 1.49705 -0.273445
head 12.6118 1.29636 -0.734589
rclavicle 4.72114e-016 -6.16232e-015
rhumerus -36.3141 6.22669 -90.3816
rradius 33.6665
rwrist 0.742109
rhand -13.4626 -29.0046
rfingers 7.12502
rthumb 12.6472 -58.6017
lclavicle 4.72114e-016 -6.16232e-015
lhumerus -30.6308 -11.8961 92.2732
lradius 24.7796
lwrist -8.72866
lhand -21.8739 -26.6557
lfingers 7.12502
lthumb 4.53057 3.2758
rfemur 8.40785 -5.36617 14.0272
rtibia 1.87089
rfoot -16.0929 -5.40068
rtoes 0.0583781
lfemur 10.2391 -1.05318 -15.9571
ltibia -2.64713
lfoot -9.83386 7.01605
ltoes -16.8229
196
root -28.7318 17.1321 1.01397 14.6019 87.2632 13.2132
lowerback 4.27003 1.85534 -4.03521
upperback 0.721113 2.29441 -0.407495
thorax -1.79229 1.1743 1.70708
lowerneck -22.1463 2.15525 5.32606
upperneck 26.593 1.46213 -0.144402
head 12.5766 1.28909 -0.675943
rclavicle 9.19379e-016 -4.17448e-015
rhumerus -36.4231 6.14507 -90.3373
rradius 33.6854
rwrist 0.712525
rhand -13.4841 -29.0155
rfingers 7.12502
rthumb 12.6265 -58.6139
lclavicle 9.19379e-016 -4.17448e-015
lhumerus -30.7102 -12.0966 92.4166
lradius 24.7171
lwrist -8.66756
lhand -22.783 -26.67
lfingers 7.12502
lthumb 3.65261 3.27845
rfemur 8.3842 -5.25639 13.9164
rtibia 1.85594
rfoot -16.1265 -5.45556
rtoes 0.732513
lfemur 10.3724 -1.71873 -16.2993
ltibia -2.952
lfoot -9.91809 7.61702
ltoes -15.5132
197
root -28.7332 17.1315 1.01514 14.5362 87.317 13.1262
lowerback 4.36146 1.8616 -4.011
upperback 0.639753 2.29631 -0.426568
thorax -1.92567 1.17816 1.66908
lowerneck -22.0475 2.12675 5.23111
upperneck 26.5467 1.40022 0.0666191
head 12.5344 1.28133 -0.590556
rclavicle 1.42876e-014 5.1684e-015
rhumerus -36.5573 6.06949 -90.3585
rradius 33.7787
rwrist 0.718853
rhand -13.5534 -28.8267
rfingers 7.12502
rthumb 12.5597 -58.4292
lclavicle 1.42876e-014 5.1684e-015
lhumerus -30.775 -12.283 92.4593
lradius 24.6555
lwrist -8.36615
lhand -21.9787 -26.8054
lfingers 7.12502
lthumb 4.42932 3.12831
rfemur 8.36151 -5.29844 13.9386
rtibia 1.8458
rfoot -16.1349 -5.40824
rtoes 1.38768
lfemur 10.431 -2.04939 -16.3727
ltibia -3.14454
lfoot -9.85891 7.93218
ltoes -16.1874
198
root -28.7331 17.1322 1.01525 13.8108 87.3526 12.4121
lowerback 4.27487 1.86528 -3.93816
upperback 0.717203 2.31121 -0.44339
thorax -1.79475 1.18215 1.61472
lowerneck -22.0596 2.1087 5.26289
upperneck 26.4767 1.36986 0.031324
head 12.5084 1.26387 -0.614942
rclavicle -2.49226e-014 2.38542e-014
rhumerus -36.3965 5.82843 -90.2596
rradius 33.7092
rwrist 0.737149
rhand -13.3516 -28.5511
rfingers 7.12502
rthumb 12.7542 -58.1415
lclavicle -2.49226e-014 2.38542e-014
lhumerus -30.6435 -12.2188 92.3433
lradius 24.6761
lwrist -8.27113
lhand -21.573 -26.9122
lfingers 7.12502
lthumb 4.8211 3.01291
rfemur 8.39905 -5.21731 14.0223
rtibia 1.79907
rfoot -16.1242 -5.48319
rtoes 2.02624
lfemur 10.3497 -1.65466 -16.1936
ltibia -3.00858
lfoot -9.6782 7.54622
ltoes -17.6366
199
root -28.7316 17.1333 1.01426 13.6439 87.2882 12.2577
lowerback 4.26545 1.8917 -3.90705
upperback 0.746802 2.34902 -0.470834
thorax -1.75878 1.19997 1.56774
lowerneck -22.1196 2.0991 5.29424
upperneck 26.4947 1.36085 -0.039149
head 12.528 1.25323 -0.648288
rclavicle -1.03865e-014 6.36111e-015
rhumerus -36.3476 5.80229 -90.3093
rradius 33.6821
rwrist 0.907291
rhand -13.3101 -28.9968
rfingers 7.12502
rthumb 12.7943 -58.5848
lclavicle -1.03865e-014 6.36111e-015
lhumerus -30.6891 -12.3222 92.3893
lradius 24.7301
lwrist -8.66726
lhand -22.216 -26.7135
lfingers 7.12502
lthumb 4.20015 3.22488
rfemur 8.41277 -5.08063 14.0389
rtibia 1.79852
rfoot -16.1847 -5.58682
rtoes 2.24117
lfemur 10.237 -1.024 -16.0086
ltibia -2.76812
lfoot -9.61166 6.95131
ltoes -16.1299
